<svg width="400" height="120" viewBox="0 0 400 120" xmlns="http://www.w3.org/2000/svg">
  <!-- Icon mark -->
  <g transform="translate(10, 5)">
    <rect x="0" y="0" width="110" height="110" rx="28" fill="#2563EB"/>
    <circle cx="30" cy="35" r="2.5" fill="white" opacity="0.25"/>
    <circle cx="55" cy="35" r="2.5" fill="white" opacity="0.25"/>
    <circle cx="80" cy="35" r="2.5" fill="white" opacity="0.25"/>
    <circle cx="30" cy="55" r="2.5" fill="white" opacity="0.25"/>
    <circle cx="55" cy="55" r="2.5" fill="white" opacity="0.25"/>
    <circle cx="80" cy="55" r="2.5" fill="white" opacity="0.25"/>
    <circle cx="30" cy="75" r="2.5" fill="white" opacity="0.25"/>
    <circle cx="55" cy="75" r="2.5" fill="white" opacity="0.25"/>
    <circle cx="80" cy="75" r="2.5" fill="white" opacity="0.25"/>
    <polyline points="22,82 42,62 62,50 88,26" fill="none" stroke="white" stroke-width="5" stroke-linecap="round" stroke-linejoin="round"/>
    <polyline points="72,22 88,22 88,38" fill="none" stroke="white" stroke-width="5" stroke-linecap="round" stroke-linejoin="round"/>
    <circle cx="22" cy="82" r="4" fill="white"/>
    <circle cx="42" cy="62" r="4" fill="white"/>
    <circle cx="62" cy="50" r="4" fill="white"/>
    <circle cx="88" cy="26" r="5" fill="white"/>
  </g>

  <!-- Wordmark -->
  <text x="135" y="72" font-family="Arial, sans-serif" font-size="48" letter-spacing="2">
    <tspan fill="#2563EB" font-weight="600">Dev</tspan><tspan fill="#0f172a" font-weight="400" dx="4">Track</tspan>
  </text>

  <!-- Tagline -->
  <text x="135" y="98" font-family="Arial, sans-serif" font-size="12" font-weight="400" letter-spacing="0.4" fill="#64748b">Track every application. Land your next role.</text>
</svg>
